M48
; DRILL file {KiCad 9.0.2} date 2025-05-24T11:24:21-0400
; FORMAT={-:-/ absolute / inch / decimal}
; #@! TF.CreationDate,2025-05-24T11:24:21-04:00
; #@! TF.GenerationSoftware,Kicad,Pcbnew,9.0.2
; #@! TF.FileFunction,Plated,1,2,PTH
FMAT,2
INCH
; #@! TA.AperFunction,Plated,PTH,ViaDrill
T1C0.0118
; #@! TA.AperFunction,Plated,PTH,ComponentDrill
T2C0.0197
; #@! TA.AperFunction,Plated,PTH,ViaDrill
T3C0.0236
; #@! TA.AperFunction,Plated,PTH,ComponentDrill
T4C0.0315
; #@! TA.AperFunction,Plated,PTH,ComponentDrill
T5C0.0354
; #@! TA.AperFunction,Plated,PTH,ComponentDrill
T6C0.0362
; #@! TA.AperFunction,Plated,PTH,ComponentDrill
T7C0.0390
; #@! TA.AperFunction,Plated,PTH,ComponentDrill
T8C0.0394
; #@! TA.AperFunction,Plated,PTH,ComponentDrill
T9C0.0512
; #@! TA.AperFunction,Plated,PTH,ComponentDrill
T10C0.0787
; #@! TA.AperFunction,Plated,PTH,ComponentDrill
T11C0.0906
; #@! TA.AperFunction,Plated,PTH,ComponentDrill
T12C0.1260
%
G90
G05
T1
X4.455Y-2.825
X4.692Y-3.178
X4.695Y-2.915
X4.708Y-3.251
X4.745Y-3.515
X4.8225Y-3.4225
X4.845Y-3.385
X4.855Y-3.085
X4.8675Y-3.4225
X4.915Y-3.684
X5.05Y-3.26
X5.305Y-3.38
X5.305Y-3.436
X5.305Y-3.488
X5.305Y-3.5384
X5.325Y-3.41
X5.325Y-3.4616
X5.325Y-3.5128
X5.325Y-3.564
X5.7305Y-3.5755
X5.837Y-3.611
X6.26Y-3.484
X6.2674Y-3.21
X6.29Y-3.505
X6.296Y-3.136
X6.316Y-3.48
X6.382Y-3.44
X6.432Y-3.232
X6.46Y-3.016
X6.466Y-3.234
X6.516Y-3.4
X6.522Y-3.194
X6.532Y-2.756
X6.57Y-3.051
X6.586Y-2.782
X6.63Y-2.762
X6.632Y-3.178
X6.636Y-3.024
X6.644Y-2.79
X6.656Y-2.73
X6.66Y-3.152
X6.687Y-3.223
X6.69Y-2.675
X6.692Y-3.178
X6.702Y-3.142
X6.705Y-2.705
X6.734Y-3.19
X6.752Y-2.912
X6.756Y-3.412
X6.764Y-3.126
X6.814Y-3.348
X6.84Y-3.315
X6.89Y-3.155
X6.912Y-3.46
X6.916Y-3.188
X6.945Y-3.51
X6.948Y-3.21
X6.9658Y-2.8
X6.975Y-2.885
X6.986Y-2.948
X7.02Y-2.515
X7.12Y-3.055
X7.145Y-3.03
X7.366Y-3.315
X7.366Y-3.395
T2
X4.5705Y-2.3875
X4.5705Y-4.345
X4.5982Y-2.3207
X4.5982Y-2.4543
X4.5982Y-4.2782
X4.5982Y-4.4118
X4.665Y-2.293
X4.665Y-2.482
X4.665Y-4.2505
X4.665Y-4.4395
X4.7318Y-2.3207
X4.7318Y-2.4543
X4.7318Y-4.2782
X4.7318Y-4.4118
X4.7595Y-2.3875
X4.7595Y-4.345
X5.4005Y-2.3875
X5.4005Y-4.345
X5.4282Y-2.3207
X5.4282Y-2.4543
X5.4282Y-4.2782
X5.4282Y-4.4118
X5.495Y-2.293
X5.495Y-2.482
X5.495Y-4.2505
X5.495Y-4.4395
X5.5618Y-2.3207
X5.5618Y-2.4543
X5.5618Y-4.2782
X5.5618Y-4.4118
X5.5895Y-2.3875
X5.5895Y-4.345
X7.3605Y-2.3875
X7.3882Y-2.3207
X7.3882Y-2.4543
X7.455Y-2.293
X7.455Y-2.482
X7.5218Y-2.3207
X7.5218Y-2.4543
X7.5495Y-2.3875
T3
X4.83Y-3.6842
X4.976Y-2.738
X5.1Y-2.9
X5.1696Y-3.6846
X5.17Y-3.7658
X5.34Y-3.665
X5.3413Y-3.6053
X5.786Y-2.748
X5.786Y-3.022
X5.92Y-3.322
X6.184Y-2.62
X6.246Y-2.972
X6.255Y-2.7642
X6.297Y-2.846
X6.44Y-3.4842
X6.44Y-3.5658
X6.4456Y-2.705
X6.53Y-3.5644
X6.62Y-3.5644
X6.71Y-3.5644
X6.8Y-3.4842
X6.8Y-3.5658
X7.11Y-2.62
X7.22Y-2.8
X7.4331Y-2.565
X7.4331Y-2.67
T4
X4.6Y-2.6
X4.6Y-2.7
X4.6Y-2.8
X4.6Y-2.9
X4.6Y-3.0
X4.6Y-3.1
X4.6Y-3.2
X4.6Y-3.3
X4.6Y-3.45
X4.6Y-3.55
X4.6Y-3.65
X4.6Y-3.75
X4.6Y-3.85
X4.6Y-3.95
X4.6Y-4.05
X4.6Y-4.15
T5
X7.685Y-2.3242
X7.685Y-2.4242
X7.685Y-2.6002
X7.685Y-2.7002
T6
X7.6633Y-3.2155
X7.6633Y-3.314
X7.6633Y-3.3927
X7.6633Y-3.4911
T7
X7.99Y-2.2852
X7.99Y-2.4624
X7.99Y-2.5612
X7.99Y-2.7384
T8
X3.85Y-2.85
X3.85Y-2.95
X3.85Y-3.05
X3.85Y-3.15
X3.85Y-3.25
X3.85Y-3.35
X3.85Y-3.45
X3.85Y-3.55
X3.85Y-3.65
X3.85Y-3.75
X3.85Y-3.85
X3.85Y-3.95
X3.85Y-4.05
X3.85Y-4.15
X3.85Y-4.25
X3.85Y-4.35
X3.85Y-4.45
X3.9Y-2.3
X3.9Y-2.4
X3.9Y-2.5
X3.9Y-2.6
X3.95Y-2.85
X3.95Y-2.95
X3.95Y-3.05
X3.95Y-3.15
X3.95Y-3.25
X3.95Y-3.35
X3.95Y-3.45
X3.95Y-3.55
X3.95Y-3.65
X3.95Y-3.75
X3.95Y-3.85
X3.95Y-3.95
X3.95Y-4.05
X3.95Y-4.15
X3.95Y-4.25
X3.95Y-4.35
X3.95Y-4.45
X4.055Y-3.2
X4.055Y-3.3
X4.055Y-3.4
X4.055Y-3.5
X4.155Y-2.985
X4.155Y-3.2
X4.155Y-3.3
X4.155Y-3.4
X4.155Y-3.5
X4.1554Y-2.34
X4.1554Y-2.44
X4.1554Y-2.54
X4.1554Y-2.64
X4.1554Y-2.74
X4.255Y-2.985
X4.255Y-3.2
X4.255Y-3.3
X4.255Y-3.4
X4.255Y-3.5
X4.2554Y-2.34
X4.2554Y-2.44
X4.2554Y-2.54
X4.2554Y-2.64
X4.2554Y-2.74
X4.925Y-4.15
X5.2242Y-4.15
X5.47Y-3.9752
X5.47Y-4.0752
X5.745Y-3.805
X5.745Y-3.905
X5.745Y-4.005
X5.745Y-4.105
X6.4Y-2.375
X6.5Y-2.375
X6.6Y-2.375
X6.7Y-2.375
X6.8Y-2.375
X7.915Y-3.1915
X7.915Y-3.2915
X7.915Y-3.3915
X7.915Y-3.4915
T9
X7.892Y-2.788
X7.892Y-2.236
T10
X7.892Y-2.512
X7.892Y-2.512
T11
X7.77Y-3.0947
X7.77Y-3.612
T12
X4.665Y-2.3875
X4.665Y-4.345
X5.495Y-2.3875
X5.495Y-4.345
X7.455Y-2.3875
M30
