G04 #@! TF.GenerationSoftware,KiCad,Pcbnew,9.0.2*
G04 #@! TF.CreationDate,2025-05-24T11:24:19-04:00*
G04 #@! TF.ProjectId,OpenFlops,4f70656e-466c-46f7-9073-2e6b69636164,1*
G04 #@! TF.SameCoordinates,Original*
G04 #@! TF.FileFunction,Soldermask,Top*
G04 #@! TF.FilePolarity,Negative*
%FSLAX46Y46*%
G04 Gerber Fmt 4.6, Leading zero omitted, Abs format (unit mm)*
G04 Created by KiCad (PCBNEW 9.0.2) date 2025-05-24 11:24:19*
%MOMM*%
%LPD*%
G01*
G04 APERTURE LIST*
G04 Aperture macros list*
%AMRoundRect*
0 Rectangle with rounded corners*
0 $1 Rounding radius*
0 $2 $3 $4 $5 $6 $7 $8 $9 X,Y pos of 4 corners*
0 Add a 4 corners polygon primitive as box body*
4,1,4,$2,$3,$4,$5,$6,$7,$8,$9,$2,$3,0*
0 Add four circle primitives for the rounded corners*
1,1,$1+$1,$2,$3*
1,1,$1+$1,$4,$5*
1,1,$1+$1,$6,$7*
1,1,$1+$1,$8,$9*
0 Add four rect primitives between the rounded corners*
20,1,$1+$1,$2,$3,$4,$5,0*
20,1,$1+$1,$4,$5,$6,$7,0*
20,1,$1+$1,$6,$7,$8,$9,0*
20,1,$1+$1,$8,$9,$2,$3,0*%
G04 Aperture macros list end*
%ADD10C,1.800000*%
%ADD11R,1.800000X1.800000*%
%ADD12R,1.700000X1.700000*%
%ADD13O,1.700000X1.700000*%
%ADD14RoundRect,0.250000X0.350000X0.450000X-0.350000X0.450000X-0.350000X-0.450000X0.350000X-0.450000X0*%
%ADD15C,2.100000*%
%ADD16C,2.500000*%
%ADD17C,1.750000*%
%ADD18C,0.800000*%
%ADD19C,6.400000*%
%ADD20C,1.700000*%
%ADD21RoundRect,0.250000X-0.250000X-0.250000X0.250000X-0.250000X0.250000X0.250000X-0.250000X0.250000X0*%
%ADD22RoundRect,0.250000X0.475000X-0.337500X0.475000X0.337500X-0.475000X0.337500X-0.475000X-0.337500X0*%
%ADD23RoundRect,0.250000X-0.450000X0.350000X-0.450000X-0.350000X0.450000X-0.350000X0.450000X0.350000X0*%
%ADD24RoundRect,0.250000X0.337500X0.475000X-0.337500X0.475000X-0.337500X-0.475000X0.337500X-0.475000X0*%
%ADD25RoundRect,0.250000X-0.475000X0.337500X-0.475000X-0.337500X0.475000X-0.337500X0.475000X0.337500X0*%
%ADD26RoundRect,0.250000X0.450000X-0.350000X0.450000X0.350000X-0.450000X0.350000X-0.450000X-0.350000X0*%
%ADD27RoundRect,0.375000X-0.625000X-0.375000X0.625000X-0.375000X0.625000X0.375000X-0.625000X0.375000X0*%
%ADD28RoundRect,0.500000X-0.500000X-1.400000X0.500000X-1.400000X0.500000X1.400000X-0.500000X1.400000X0*%
%ADD29R,1.600000X1.600000*%
%ADD30O,1.600000X1.600000*%
%ADD31C,1.000000*%
%ADD32RoundRect,0.075000X-0.700000X-0.075000X0.700000X-0.075000X0.700000X0.075000X-0.700000X0.075000X0*%
%ADD33RoundRect,0.075000X-0.075000X-0.700000X0.075000X-0.700000X0.075000X0.700000X-0.075000X0.700000X0*%
%ADD34R,1.524000X1.524000*%
%ADD35C,1.524000*%
%ADD36C,3.500000*%
%ADD37RoundRect,0.250000X0.875000X0.925000X-0.875000X0.925000X-0.875000X-0.925000X0.875000X-0.925000X0*%
%ADD38R,2.400000X3.500000*%
%ADD39R,2.000000X2.000000*%
%ADD40C,2.000000*%
%ADD41RoundRect,0.200000X0.200000X-0.750000X0.200000X0.750000X-0.200000X0.750000X-0.200000X-0.750000X0*%
%ADD42RoundRect,0.100000X0.637500X0.100000X-0.637500X0.100000X-0.637500X-0.100000X0.637500X-0.100000X0*%
%ADD43RoundRect,0.250000X-0.350000X-0.450000X0.350000X-0.450000X0.350000X0.450000X-0.350000X0.450000X0*%
G04 APERTURE END LIST*
D10*
X195199000Y-59034600D03*
D11*
X195199000Y-61574600D03*
D12*
X97790000Y-72390000D03*
D13*
X100330000Y-72390000D03*
X97790000Y-74930000D03*
X100330000Y-74930000D03*
X97790000Y-77470000D03*
X100330000Y-77470000D03*
X97790000Y-80010000D03*
X100330000Y-80010000D03*
X97790000Y-82550000D03*
X100330000Y-82550000D03*
X97790000Y-85090000D03*
X100330000Y-85090000D03*
X97790000Y-87630000D03*
X100330000Y-87630000D03*
X97790000Y-90170000D03*
X100330000Y-90170000D03*
X97790000Y-92710000D03*
X100330000Y-92710000D03*
X97790000Y-95250000D03*
X100330000Y-95250000D03*
X97790000Y-97790000D03*
X100330000Y-97790000D03*
X97790000Y-100330000D03*
X100330000Y-100330000D03*
X97790000Y-102870000D03*
X100330000Y-102870000D03*
X97790000Y-105410000D03*
X100330000Y-105410000D03*
X97790000Y-107950000D03*
X100330000Y-107950000D03*
X97790000Y-110490000D03*
X100330000Y-110490000D03*
X97790000Y-113030000D03*
X100330000Y-113030000D03*
D14*
X190801500Y-65151000D03*
X188801500Y-65151000D03*
D15*
X200456800Y-56794400D03*
D16*
X200456799Y-63804400D03*
D17*
X202946799Y-58044400D03*
X202946799Y-62544401D03*
D16*
X200456800Y-63804800D03*
D15*
X200456799Y-70814800D03*
D17*
X202946799Y-65054800D03*
X202946799Y-69554801D03*
D18*
X116091000Y-60642500D03*
X116793944Y-58945444D03*
X116793944Y-62339556D03*
X118491000Y-58242500D03*
D19*
X118491000Y-60642500D03*
D18*
X118491000Y-63042500D03*
X120188056Y-58945444D03*
X120188056Y-62339556D03*
X120891000Y-60642500D03*
X137173000Y-60642500D03*
X137875944Y-58945444D03*
X137875944Y-62339556D03*
X139573000Y-58242500D03*
D19*
X139573000Y-60642500D03*
D18*
X139573000Y-63042500D03*
X141270056Y-58945444D03*
X141270056Y-62339556D03*
X141973000Y-60642500D03*
X116091000Y-110363000D03*
X116793944Y-108665944D03*
X116793944Y-112060056D03*
X118491000Y-107963000D03*
D19*
X118491000Y-110363000D03*
D18*
X118491000Y-112763000D03*
X120188056Y-108665944D03*
X120188056Y-112060056D03*
X120891000Y-110363000D03*
X137173000Y-110363000D03*
X137875944Y-108665944D03*
X137875944Y-112060056D03*
X139573000Y-107963000D03*
D19*
X139573000Y-110363000D03*
D18*
X139573000Y-112763000D03*
X141270056Y-108665944D03*
X141270056Y-112060056D03*
X141973000Y-110363000D03*
X186957000Y-60642500D03*
X187659944Y-58945444D03*
X187659944Y-62339556D03*
X189357000Y-58242500D03*
D19*
X189357000Y-60642500D03*
D18*
X189357000Y-63042500D03*
X191054056Y-58945444D03*
X191054056Y-62339556D03*
X191757000Y-60642500D03*
D11*
X195199000Y-68585000D03*
D10*
X195199000Y-66045000D03*
D14*
X190801500Y-67818000D03*
X188801500Y-67818000D03*
D12*
X162560000Y-60325000D03*
D13*
X165100000Y-60325000D03*
X167640000Y-60325000D03*
X170180000Y-60325000D03*
X172720000Y-60325000D03*
D20*
X145923000Y-96647000D03*
D13*
X145923000Y-99187000D03*
X145923000Y-101727000D03*
X145923000Y-104267000D03*
D12*
X201041000Y-88683000D03*
D13*
X201041000Y-86143000D03*
X201041000Y-83603000D03*
X201041000Y-81063000D03*
D12*
X102997000Y-81280000D03*
D13*
X105537000Y-81280000D03*
X108077000Y-81280000D03*
D12*
X102997000Y-83820000D03*
D13*
X105537000Y-83820000D03*
X108077000Y-83820000D03*
D12*
X102997000Y-86360000D03*
D13*
X105537000Y-86360000D03*
X108077000Y-86360000D03*
D12*
X102997000Y-88900000D03*
D13*
X105537000Y-88900000D03*
X108077000Y-88900000D03*
D20*
X99060000Y-66040000D03*
D13*
X99060000Y-63500000D03*
X99060000Y-60960000D03*
X99060000Y-58420000D03*
D12*
X108087000Y-69596000D03*
D13*
X105547000Y-69596000D03*
X108087000Y-67056000D03*
X105547000Y-67056000D03*
X108087000Y-64516000D03*
X105547000Y-64516000D03*
X108087000Y-61976000D03*
X105547000Y-61976000D03*
X108087000Y-59436000D03*
X105547000Y-59436000D03*
D12*
X105537000Y-75819000D03*
D13*
X108077000Y-75819000D03*
D21*
X135656001Y-97536000D03*
X138155999Y-97536000D03*
D22*
X163576000Y-90572500D03*
X163576000Y-88497500D03*
D23*
X184404000Y-69104000D03*
X184404000Y-71104000D03*
D24*
X176932500Y-71120000D03*
X174857500Y-71120000D03*
D22*
X122682000Y-95652500D03*
X122682000Y-93577500D03*
D25*
X151765000Y-73765500D03*
X151765000Y-75840500D03*
D26*
X129159000Y-95615000D03*
X129159000Y-93615000D03*
D27*
X126390000Y-71360000D03*
X126390000Y-73660000D03*
D28*
X132690000Y-73660000D03*
D27*
X126390000Y-75960000D03*
D25*
X172720000Y-88497500D03*
X172720000Y-90572500D03*
D26*
X144653000Y-91932000D03*
X144653000Y-89932000D03*
D25*
X158877000Y-70209500D03*
X158877000Y-72284500D03*
D23*
X182372000Y-69104000D03*
X182372000Y-71104000D03*
D29*
X116840000Y-87629999D03*
D30*
X116840000Y-90169999D03*
X116840000Y-92709998D03*
X116840000Y-95249999D03*
X116840000Y-97789999D03*
X116840000Y-100329999D03*
X116840000Y-102869999D03*
X116840000Y-105410000D03*
D31*
X160020000Y-91694000D03*
D32*
X161965000Y-74482000D03*
X161965000Y-74982000D03*
X161965000Y-75482000D03*
X161965000Y-75982000D03*
X161965000Y-76482000D03*
X161965000Y-76982000D03*
X161965000Y-77482000D03*
X161965000Y-77982000D03*
X161965000Y-78482000D03*
X161965000Y-78982000D03*
X161965000Y-79482000D03*
X161965000Y-79982000D03*
X161965000Y-80482000D03*
X161965000Y-80982000D03*
X161965000Y-81482000D03*
X161965000Y-81982000D03*
D33*
X163890000Y-83907000D03*
X164390000Y-83907000D03*
X164890000Y-83907000D03*
X165390000Y-83907000D03*
X165890000Y-83907000D03*
X166390000Y-83907000D03*
X166890000Y-83907000D03*
X167390000Y-83907000D03*
X167890000Y-83907000D03*
X168390000Y-83907000D03*
X168890000Y-83907000D03*
X169390000Y-83907000D03*
X169890000Y-83907000D03*
X170390000Y-83907000D03*
X170890000Y-83907000D03*
X171390000Y-83907000D03*
D32*
X173315000Y-81982000D03*
X173315000Y-81482000D03*
X173315000Y-80982000D03*
X173315000Y-80482000D03*
X173315000Y-79982000D03*
X173315000Y-79482000D03*
X173315000Y-78982000D03*
X173315000Y-78482000D03*
X173315000Y-77982000D03*
X173315000Y-77482000D03*
X173315000Y-76982000D03*
X173315000Y-76482000D03*
X173315000Y-75982000D03*
X173315000Y-75482000D03*
X173315000Y-74982000D03*
X173315000Y-74482000D03*
D33*
X171390000Y-72557000D03*
X170890000Y-72557000D03*
X170390000Y-72557000D03*
X169890000Y-72557000D03*
X169390000Y-72557000D03*
X168890000Y-72557000D03*
X168390000Y-72557000D03*
X167890000Y-72557000D03*
X167390000Y-72557000D03*
X166890000Y-72557000D03*
X166390000Y-72557000D03*
X165890000Y-72557000D03*
X165390000Y-72557000D03*
X164890000Y-72557000D03*
X164390000Y-72557000D03*
X163890000Y-72557000D03*
D14*
X189087000Y-86233000D03*
X187087000Y-86233000D03*
D22*
X151765000Y-79777500D03*
X151765000Y-77702500D03*
D34*
X194648000Y-88674800D03*
D35*
X194648000Y-86174800D03*
X194648000Y-84174799D03*
X194648000Y-81674801D03*
D36*
X197358000Y-91744800D03*
X197358000Y-78604800D03*
D37*
X188884400Y-91338400D03*
X183784400Y-91338400D03*
D26*
X168148000Y-90535000D03*
X168148000Y-88535000D03*
D24*
X128291500Y-78359000D03*
X126216500Y-78359000D03*
D29*
X116840000Y-66040000D03*
D30*
X116840000Y-68580000D03*
X116840000Y-71119999D03*
X116840000Y-73660000D03*
X116840000Y-76200000D03*
X116840000Y-78740000D03*
X116840000Y-81280000D03*
X116840000Y-83820001D03*
D38*
X155346400Y-74158799D03*
X155346400Y-79358801D03*
D22*
X132969000Y-68728500D03*
X132969000Y-66653500D03*
D39*
X125095000Y-105410000D03*
D40*
X132695000Y-105410000D03*
D41*
X140528000Y-92559000D03*
X142428000Y-92559000D03*
X141478000Y-89559000D03*
D26*
X127000000Y-95615000D03*
X127000000Y-93615000D03*
D42*
X132402500Y-91825000D03*
X132402500Y-91175000D03*
X132402500Y-90525000D03*
X132402500Y-89875000D03*
X132402500Y-89225000D03*
X132402500Y-88575000D03*
X132402500Y-87925000D03*
X132402500Y-87275000D03*
X132402500Y-86625000D03*
X132402500Y-85975000D03*
X126677500Y-85975000D03*
X126677500Y-86625000D03*
X126677500Y-87275000D03*
X126677500Y-87925000D03*
X126677500Y-88575000D03*
X126677500Y-89225000D03*
X126677500Y-89875000D03*
X126677500Y-90525000D03*
X126677500Y-91175000D03*
X126677500Y-91825000D03*
D26*
X165862000Y-90535000D03*
X165862000Y-88535000D03*
D25*
X124841000Y-93577500D03*
X124841000Y-95652500D03*
D12*
X138938000Y-103510000D03*
D13*
X138938000Y-100970000D03*
D14*
X165719000Y-68707000D03*
X163719000Y-68707000D03*
D43*
X135906000Y-95351600D03*
X137906000Y-95351600D03*
D22*
X130810000Y-68728500D03*
X130810000Y-66653500D03*
X131318000Y-95652500D03*
X131318000Y-93577500D03*
D24*
X128291500Y-80518000D03*
X126216500Y-80518000D03*
D26*
X170434000Y-90535000D03*
X170434000Y-88535000D03*
D14*
X189087000Y-84201000D03*
X187087000Y-84201000D03*
D25*
X161036000Y-70209500D03*
X161036000Y-72284500D03*
M02*
