G04 #@! TF.GenerationSoftware,KiCad,Pcbnew,9.0.2*
G04 #@! TF.CreationDate,2025-05-24T11:24:19-04:00*
G04 #@! TF.ProjectId,OpenFlops,4f70656e-466c-46f7-9073-2e6b69636164,1*
G04 #@! TF.SameCoordinates,Original*
G04 #@! TF.FileFunction,Copper,L1,Top*
G04 #@! TF.FilePolarity,Positive*
%FSLAX46Y46*%
G04 Gerber Fmt 4.6, Leading zero omitted, Abs format (unit mm)*
G04 Created by KiCad (PCBNEW 9.0.2) date 2025-05-24 11:24:19*
%MOMM*%
%LPD*%
G01*
G04 APERTURE LIST*
G04 Aperture macros list*
%AMRoundRect*
0 Rectangle with rounded corners*
0 $1 Rounding radius*
0 $2 $3 $4 $5 $6 $7 $8 $9 X,Y pos of 4 corners*
0 Add a 4 corners polygon primitive as box body*
4,1,4,$2,$3,$4,$5,$6,$7,$8,$9,$2,$3,0*
0 Add four circle primitives for the rounded corners*
1,1,$1+$1,$2,$3*
1,1,$1+$1,$4,$5*
1,1,$1+$1,$6,$7*
1,1,$1+$1,$8,$9*
0 Add four rect primitives between the rounded corners*
20,1,$1+$1,$2,$3,$4,$5,0*
20,1,$1+$1,$4,$5,$6,$7,0*
20,1,$1+$1,$6,$7,$8,$9,0*
20,1,$1+$1,$8,$9,$2,$3,0*%
G04 Aperture macros list end*
G04 #@! TA.AperFunction,ComponentPad*
%ADD10C,1.800000*%
G04 #@! TD*
G04 #@! TA.AperFunction,ComponentPad*
%ADD11R,1.800000X1.800000*%
G04 #@! TD*
G04 #@! TA.AperFunction,ComponentPad*
%ADD12R,1.700000X1.700000*%
G04 #@! TD*
G04 #@! TA.AperFunction,ComponentPad*
%ADD13O,1.700000X1.700000*%
G04 #@! TD*
G04 #@! TA.AperFunction,SMDPad,CuDef*
%ADD14RoundRect,0.250000X0.350000X0.450000X-0.350000X0.450000X-0.350000X-0.450000X0.350000X-0.450000X0*%
G04 #@! TD*
G04 #@! TA.AperFunction,ComponentPad*
%ADD15C,2.100000*%
G04 #@! TD*
G04 #@! TA.AperFunction,ComponentPad*
%ADD16C,2.500000*%
G04 #@! TD*
G04 #@! TA.AperFunction,ComponentPad*
%ADD17C,1.750000*%
G04 #@! TD*
G04 #@! TA.AperFunction,ComponentPad*
%ADD18C,0.800000*%
G04 #@! TD*
G04 #@! TA.AperFunction,ComponentPad*
%ADD19C,6.400000*%
G04 #@! TD*
G04 #@! TA.AperFunction,ComponentPad*
%ADD20C,1.700000*%
G04 #@! TD*
G04 #@! TA.AperFunction,SMDPad,CuDef*
%ADD21RoundRect,0.250000X-0.250000X-0.250000X0.250000X-0.250000X0.250000X0.250000X-0.250000X0.250000X0*%
G04 #@! TD*
G04 #@! TA.AperFunction,SMDPad,CuDef*
%ADD22RoundRect,0.250000X0.475000X-0.337500X0.475000X0.337500X-0.475000X0.337500X-0.475000X-0.337500X0*%
G04 #@! TD*
G04 #@! TA.AperFunction,SMDPad,CuDef*
%ADD23RoundRect,0.250000X-0.450000X0.350000X-0.450000X-0.350000X0.450000X-0.350000X0.450000X0.350000X0*%
G04 #@! TD*
G04 #@! TA.AperFunction,SMDPad,CuDef*
%ADD24RoundRect,0.250000X0.337500X0.475000X-0.337500X0.475000X-0.337500X-0.475000X0.337500X-0.475000X0*%
G04 #@! TD*
G04 #@! TA.AperFunction,SMDPad,CuDef*
%ADD25RoundRect,0.250000X-0.475000X0.337500X-0.475000X-0.337500X0.475000X-0.337500X0.475000X0.337500X0*%
G04 #@! TD*
G04 #@! TA.AperFunction,SMDPad,CuDef*
%ADD26RoundRect,0.250000X0.450000X-0.350000X0.450000X0.350000X-0.450000X0.350000X-0.450000X-0.350000X0*%
G04 #@! TD*
G04 #@! TA.AperFunction,SMDPad,CuDef*
%ADD27RoundRect,0.375000X-0.625000X-0.375000X0.625000X-0.375000X0.625000X0.375000X-0.625000X0.375000X0*%
G04 #@! TD*
G04 #@! TA.AperFunction,SMDPad,CuDef*
%ADD28RoundRect,0.500000X-0.500000X-1.400000X0.500000X-1.400000X0.500000X1.400000X-0.500000X1.400000X0*%
G04 #@! TD*
G04 #@! TA.AperFunction,ComponentPad*
%ADD29R,1.600000X1.600000*%
G04 #@! TD*
G04 #@! TA.AperFunction,ComponentPad*
%ADD30O,1.600000X1.600000*%
G04 #@! TD*
G04 #@! TA.AperFunction,SMDPad,CuDef*
%ADD31C,1.000000*%
G04 #@! TD*
G04 #@! TA.AperFunction,SMDPad,CuDef*
%ADD32RoundRect,0.075000X-0.700000X-0.075000X0.700000X-0.075000X0.700000X0.075000X-0.700000X0.075000X0*%
G04 #@! TD*
G04 #@! TA.AperFunction,SMDPad,CuDef*
%ADD33RoundRect,0.075000X-0.075000X-0.700000X0.075000X-0.700000X0.075000X0.700000X-0.075000X0.700000X0*%
G04 #@! TD*
G04 #@! TA.AperFunction,ComponentPad*
%ADD34R,1.524000X1.524000*%
G04 #@! TD*
G04 #@! TA.AperFunction,ComponentPad*
%ADD35C,1.524000*%
G04 #@! TD*
G04 #@! TA.AperFunction,ComponentPad*
%ADD36C,3.500000*%
G04 #@! TD*
G04 #@! TA.AperFunction,SMDPad,CuDef*
%ADD37RoundRect,0.250000X0.875000X0.925000X-0.875000X0.925000X-0.875000X-0.925000X0.875000X-0.925000X0*%
G04 #@! TD*
G04 #@! TA.AperFunction,SMDPad,CuDef*
%ADD38R,2.400000X3.500000*%
G04 #@! TD*
G04 #@! TA.AperFunction,ComponentPad*
%ADD39R,2.000000X2.000000*%
G04 #@! TD*
G04 #@! TA.AperFunction,ComponentPad*
%ADD40C,2.000000*%
G04 #@! TD*
G04 #@! TA.AperFunction,SMDPad,CuDef*
%ADD41RoundRect,0.200000X0.200000X-0.750000X0.200000X0.750000X-0.200000X0.750000X-0.200000X-0.750000X0*%
G04 #@! TD*
G04 #@! TA.AperFunction,SMDPad,CuDef*
%ADD42RoundRect,0.100000X0.637500X0.100000X-0.637500X0.100000X-0.637500X-0.100000X0.637500X-0.100000X0*%
G04 #@! TD*
G04 #@! TA.AperFunction,SMDPad,CuDef*
%ADD43RoundRect,0.250000X-0.350000X-0.450000X0.350000X-0.450000X0.350000X0.450000X-0.350000X0.450000X0*%
G04 #@! TD*
G04 #@! TA.AperFunction,ViaPad*
%ADD44C,0.800000*%
G04 #@! TD*
G04 #@! TA.AperFunction,ViaPad*
%ADD45C,0.450000*%
G04 #@! TD*
G04 #@! TA.AperFunction,Conductor*
%ADD46C,0.300000*%
G04 #@! TD*
G04 #@! TA.AperFunction,Conductor*
%ADD47C,1.500000*%
G04 #@! TD*
G04 #@! TA.AperFunction,Conductor*
%ADD48C,0.500000*%
G04 #@! TD*
G04 #@! TA.AperFunction,Conductor*
%ADD49C,0.800000*%
G04 #@! TD*
G04 #@! TA.AperFunction,Conductor*
%ADD50C,0.200000*%
G04 #@! TD*
G04 #@! TA.AperFunction,Conductor*
%ADD51C,0.250000*%
G04 #@! TD*
G04 APERTURE END LIST*
D10*
X195199000Y-59034600D03*
D11*
X195199000Y-61574600D03*
D12*
X97790000Y-72390000D03*
D13*
X100330000Y-72390000D03*
X97790000Y-74930000D03*
X100330000Y-74930000D03*
X97790000Y-77470000D03*
X100330000Y-77470000D03*
X97790000Y-80010000D03*
X100330000Y-80010000D03*
X97790000Y-82550000D03*
X100330000Y-82550000D03*
X97790000Y-85090000D03*
X100330000Y-85090000D03*
X97790000Y-87630000D03*
X100330000Y-87630000D03*
X97790000Y-90170000D03*
X100330000Y-90170000D03*
X97790000Y-92710000D03*
X100330000Y-92710000D03*
X97790000Y-95250000D03*
X100330000Y-95250000D03*
X97790000Y-97790000D03*
X100330000Y-97790000D03*
X97790000Y-100330000D03*
X100330000Y-100330000D03*
X97790000Y-102870000D03*
X100330000Y-102870000D03*
X97790000Y-105410000D03*
X100330000Y-105410000D03*
X97790000Y-107950000D03*
X100330000Y-107950000D03*
X97790000Y-110490000D03*
X100330000Y-110490000D03*
X97790000Y-113030000D03*
X100330000Y-113030000D03*
D14*
X190801500Y-65151000D03*
X188801500Y-65151000D03*
D15*
X200456800Y-56794400D03*
D16*
X200456799Y-63804400D03*
D17*
X202946799Y-58044400D03*
X202946799Y-62544401D03*
D16*
X200456800Y-63804800D03*
D15*
X200456799Y-70814800D03*
D17*
X202946799Y-65054800D03*
X202946799Y-69554801D03*
D18*
X116091000Y-60642500D03*
X116793944Y-58945444D03*
X116793944Y-62339556D03*
X118491000Y-58242500D03*
D19*
X118491000Y-60642500D03*
D18*
X118491000Y-63042500D03*
X120188056Y-58945444D03*
X120188056Y-62339556D03*
X120891000Y-60642500D03*
X137173000Y-60642500D03*
X137875944Y-58945444D03*
X137875944Y-62339556D03*
X139573000Y-58242500D03*
D19*
X139573000Y-60642500D03*
D18*
X139573000Y-63042500D03*
X141270056Y-58945444D03*
X141270056Y-62339556D03*
X141973000Y-60642500D03*
X116091000Y-110363000D03*
X116793944Y-108665944D03*
X116793944Y-112060056D03*
X118491000Y-107963000D03*
D19*
X118491000Y-110363000D03*
D18*
X118491000Y-112763000D03*
X120188056Y-108665944D03*
X120188056Y-112060056D03*
X120891000Y-110363000D03*
X137173000Y-110363000D03*
X137875944Y-108665944D03*
X137875944Y-112060056D03*
X139573000Y-107963000D03*
D19*
X139573000Y-110363000D03*
D18*
X139573000Y-112763000D03*
X141270056Y-108665944D03*
X141270056Y-112060056D03*
X141973000Y-110363000D03*
X186957000Y-60642500D03*
X187659944Y-58945444D03*
X187659944Y-62339556D03*
X189357000Y-58242500D03*
D19*
X189357000Y-60642500D03*
D18*
X189357000Y-63042500D03*
X191054056Y-58945444D03*
X191054056Y-62339556D03*
X191757000Y-60642500D03*
D11*
X195199000Y-68585000D03*
D10*
X195199000Y-66045000D03*
D14*
X190801500Y-67818000D03*
X188801500Y-67818000D03*
D12*
X162560000Y-60325000D03*
D13*
X165100000Y-60325000D03*
X167640000Y-60325000D03*
X170180000Y-60325000D03*
X172720000Y-60325000D03*
D20*
X145923000Y-96647000D03*
D13*
X145923000Y-99187000D03*
X145923000Y-101727000D03*
X145923000Y-104267000D03*
D12*
X201041000Y-88683000D03*
D13*
X201041000Y-86143000D03*
X201041000Y-83603000D03*
X201041000Y-81063000D03*
D12*
X102997000Y-81280000D03*
D13*
X105537000Y-81280000D03*
X108077000Y-81280000D03*
D12*
X102997000Y-83820000D03*
D13*
X105537000Y-83820000D03*
X108077000Y-83820000D03*
D12*
X102997000Y-86360000D03*
D13*
X105537000Y-86360000D03*
X108077000Y-86360000D03*
D12*
X102997000Y-88900000D03*
D13*
X105537000Y-88900000D03*
X108077000Y-88900000D03*
D20*
X99060000Y-66040000D03*
D13*
X99060000Y-63500000D03*
X99060000Y-60960000D03*
X99060000Y-58420000D03*
D12*
X108087000Y-69596000D03*
D13*
X105547000Y-69596000D03*
X108087000Y-67056000D03*
X105547000Y-67056000D03*
X108087000Y-64516000D03*
X105547000Y-64516000D03*
X108087000Y-61976000D03*
X105547000Y-61976000D03*
X108087000Y-59436000D03*
X105547000Y-59436000D03*
D12*
X105537000Y-75819000D03*
D13*
X108077000Y-75819000D03*
D21*
X135656001Y-97536000D03*
X138155999Y-97536000D03*
D22*
X163576000Y-90572500D03*
X163576000Y-88497500D03*
D23*
X184404000Y-69104000D03*
X184404000Y-71104000D03*
D24*
X176932500Y-71120000D03*
X174857500Y-71120000D03*
D22*
X122682000Y-95652500D03*
X122682000Y-93577500D03*
D25*
X151765000Y-73765500D03*
X151765000Y-75840500D03*
D26*
X129159000Y-95615000D03*
X129159000Y-93615000D03*
D27*
X126390000Y-71360000D03*
X126390000Y-73660000D03*
D28*
X132690000Y-73660000D03*
D27*
X126390000Y-75960000D03*
D25*
X172720000Y-88497500D03*
X172720000Y-90572500D03*
D26*
X144653000Y-91932000D03*
X144653000Y-89932000D03*
D25*
X158877000Y-70209500D03*
X158877000Y-72284500D03*
D23*
X182372000Y-69104000D03*
X182372000Y-71104000D03*
D29*
X116840000Y-87629999D03*
D30*
X116840000Y-90169999D03*
X116840000Y-92709998D03*
X116840000Y-95249999D03*
X116840000Y-97789999D03*
X116840000Y-100329999D03*
X116840000Y-102869999D03*
X116840000Y-105410000D03*
D31*
X160020000Y-91694000D03*
D32*
X161965000Y-74482000D03*
X161965000Y-74982000D03*
X161965000Y-75482000D03*
X161965000Y-75982000D03*
X161965000Y-76482000D03*
X161965000Y-76982000D03*
X161965000Y-77482000D03*
X161965000Y-77982000D03*
X161965000Y-78482000D03*
X161965000Y-78982000D03*
X161965000Y-79482000D03*
X161965000Y-79982000D03*
X161965000Y-80482000D03*
X161965000Y-80982000D03*
X161965000Y-81482000D03*
X161965000Y-81982000D03*
D33*
X163890000Y-83907000D03*
X164390000Y-83907000D03*
X164890000Y-83907000D03*
X165390000Y-83907000D03*
X165890000Y-83907000D03*
X166390000Y-83907000D03*
X166890000Y-83907000D03*
X167390000Y-83907000D03*
X167890000Y-83907000D03*
X168390000Y-83907000D03*
X168890000Y-83907000D03*
X169390000Y-83907000D03*
X169890000Y-83907000D03*
X170390000Y-83907000D03*
X170890000Y-83907000D03*
X171390000Y-83907000D03*
D32*
X173315000Y-81982000D03*
X173315000Y-81482000D03*
X173315000Y-80982000D03*
X173315000Y-80482000D03*
X173315000Y-79982000D03*
X173315000Y-79482000D03*
X173315000Y-78982000D03*
X173315000Y-78482000D03*
X173315000Y-77982000D03*
X173315000Y-77482000D03*
X173315000Y-76982000D03*
X173315000Y-76482000D03*
X173315000Y-75982000D03*
X173315000Y-75482000D03*
X173315000Y-74982000D03*
X173315000Y-74482000D03*
D33*
X171390000Y-72557000D03*
X170890000Y-72557000D03*
X170390000Y-72557000D03*
X169890000Y-72557000D03*
X169390000Y-72557000D03*
X168890000Y-72557000D03*
X168390000Y-72557000D03*
X167890000Y-72557000D03*
X167390000Y-72557000D03*
X166890000Y-72557000D03*
X166390000Y-72557000D03*
X165890000Y-72557000D03*
X165390000Y-72557000D03*
X164890000Y-72557000D03*
X164390000Y-72557000D03*
X163890000Y-72557000D03*
D14*
X189087000Y-86233000D03*
X187087000Y-86233000D03*
D22*
X151765000Y-79777500D03*
X151765000Y-77702500D03*
D34*
X194648000Y-88674800D03*
D35*
X194648000Y-86174800D03*
X194648000Y-84174799D03*
X194648000Y-81674801D03*
D36*
X197358000Y-91744800D03*
X197358000Y-78604800D03*
D37*
X188884400Y-91338400D03*
X183784400Y-91338400D03*
D26*
X168148000Y-90535000D03*
X168148000Y-88535000D03*
D24*
X128291500Y-78359000D03*
X126216500Y-78359000D03*
D29*
X116840000Y-66040000D03*
D30*
X116840000Y-68580000D03*
X116840000Y-71119999D03*
X116840000Y-73660000D03*
X116840000Y-76200000D03*
X116840000Y-78740000D03*
X116840000Y-81280000D03*
X116840000Y-83820001D03*
D38*
X155346400Y-74158799D03*
X155346400Y-79358801D03*
D22*
X132969000Y-68728500D03*
X132969000Y-66653500D03*
D39*
X125095000Y-105410000D03*
D40*
X132695000Y-105410000D03*
D41*
X140528000Y-92559000D03*
X142428000Y-92559000D03*
X141478000Y-89559000D03*
D26*
X127000000Y-95615000D03*
X127000000Y-93615000D03*
D42*
X132402500Y-91825000D03*
X132402500Y-91175000D03*
X132402500Y-90525000D03*
X132402500Y-89875000D03*
X132402500Y-89225000D03*
X132402500Y-88575000D03*
X132402500Y-87925000D03*
X132402500Y-87275000D03*
X132402500Y-86625000D03*
X132402500Y-85975000D03*
X126677500Y-85975000D03*
X126677500Y-86625000D03*
X126677500Y-87275000D03*
X126677500Y-87925000D03*
X126677500Y-88575000D03*
X126677500Y-89225000D03*
X126677500Y-89875000D03*
X126677500Y-90525000D03*
X126677500Y-91175000D03*
X126677500Y-91825000D03*
D26*
X165862000Y-90535000D03*
X165862000Y-88535000D03*
D25*
X124841000Y-93577500D03*
X124841000Y-95652500D03*
D12*
X138938000Y-103510000D03*
D13*
X138938000Y-100970000D03*
D14*
X165719000Y-68707000D03*
X163719000Y-68707000D03*
D43*
X135906000Y-95351600D03*
X137906000Y-95351600D03*
D22*
X130810000Y-68728500D03*
X130810000Y-66653500D03*
X131318000Y-95652500D03*
X131318000Y-93577500D03*
D24*
X128291500Y-80518000D03*
X126216500Y-80518000D03*
D26*
X170434000Y-90535000D03*
X170434000Y-88535000D03*
D14*
X189087000Y-84201000D03*
X187087000Y-84201000D03*
D25*
X161036000Y-70209500D03*
X161036000Y-72284500D03*
D44*
X146964400Y-76758800D03*
X158877000Y-70209500D03*
D45*
X123063000Y-85979000D03*
X113157000Y-71755000D03*
D44*
X165862000Y-90535000D03*
X158648400Y-75488800D03*
X135668238Y-91573838D03*
D45*
X119176800Y-80721200D03*
D44*
X131318000Y-95652500D03*
X129540000Y-73660000D03*
D45*
X171602400Y-86664800D03*
X119253000Y-74041000D03*
X176932500Y-71120000D03*
D44*
X163719000Y-68707000D03*
D45*
X148259801Y-91719401D03*
D44*
X163576000Y-90572500D03*
X146964400Y-69799200D03*
D45*
X123317000Y-78359000D03*
X162102800Y-87376000D03*
D44*
X150368000Y-84378800D03*
D45*
X178308000Y-63881000D03*
X120523000Y-89281000D03*
D44*
X172720000Y-90572500D03*
D45*
X169062400Y-69342000D03*
X128270000Y-82804000D03*
X159191000Y-81534000D03*
X124841000Y-93573600D03*
D44*
X126390000Y-69545200D03*
X159943800Y-72288400D03*
X131307250Y-93588250D03*
X180594000Y-66548000D03*
X157073600Y-66548000D03*
X188801500Y-67818000D03*
X163576000Y-88497500D03*
X188801500Y-65151000D03*
X170434000Y-90535000D03*
X172720000Y-88497500D03*
X168148000Y-90535000D03*
X135636000Y-93091000D03*
X122682000Y-93577500D03*
X183388000Y-71120000D03*
D45*
X163372800Y-82092800D03*
X175666400Y-80975200D03*
X159766000Y-89027000D03*
X171805600Y-79400400D03*
X177165000Y-73279000D03*
X123634500Y-86931500D03*
X122491500Y-86931500D03*
X171500800Y-73964800D03*
X164084000Y-76606400D03*
X176403000Y-89154000D03*
X173736000Y-84201000D03*
X168402000Y-70154800D03*
X168554400Y-76809600D03*
X166878000Y-77495400D03*
X165912800Y-70002400D03*
X175006000Y-80137000D03*
X165658800Y-81127600D03*
X168452800Y-80721200D03*
X135255000Y-87925000D03*
X170230800Y-79806800D03*
X134747000Y-88595200D03*
X167284400Y-70662800D03*
X135255000Y-89225000D03*
X173075600Y-85039200D03*
X135255000Y-90525000D03*
X168757600Y-70866000D03*
X175564800Y-87884000D03*
X165506400Y-86360000D03*
X134747000Y-89875000D03*
X169164000Y-80060800D03*
X134747000Y-87275000D03*
X160426400Y-88392000D03*
X177444400Y-74879200D03*
X171043600Y-81026000D03*
X176479200Y-81534000D03*
X164236400Y-82143600D03*
X169926000Y-67945000D03*
X170307000Y-68707000D03*
X119583200Y-82575400D03*
X159918400Y-79654400D03*
X169849800Y-81864200D03*
X135255000Y-86614000D03*
X169976800Y-80721200D03*
X134747000Y-85852000D03*
X187096400Y-84201000D03*
X181483000Y-76962000D03*
X187096400Y-86233000D03*
X180848000Y-77597000D03*
X159004000Y-88493600D03*
X145554700Y-90817700D03*
D46*
X193441400Y-68585000D02*
X195199000Y-68585000D01*
X192922400Y-69104000D02*
X193441400Y-68585000D01*
X184404000Y-69104000D02*
X192922400Y-69104000D01*
X193746200Y-66045000D02*
X195199000Y-66045000D01*
X191973200Y-67818000D02*
X193746200Y-66045000D01*
X190801500Y-67818000D02*
X191973200Y-67818000D01*
X195199000Y-63119000D02*
X195199000Y-61574600D01*
X191770000Y-66548000D02*
X195199000Y-63119000D01*
X184928000Y-66548000D02*
X191770000Y-66548000D01*
X182372000Y-69104000D02*
X184928000Y-66548000D01*
X193395600Y-60838000D02*
X195199000Y-59034600D01*
X193395600Y-63550800D02*
X193395600Y-60838000D01*
X191795400Y-65151000D02*
X193395600Y-63550800D01*
X190801500Y-65151000D02*
X191795400Y-65151000D01*
X204221799Y-68279801D02*
X202946799Y-69554801D01*
X204221799Y-63073938D02*
X204221799Y-68279801D01*
X204222799Y-63072938D02*
X204221799Y-63073938D01*
X204222799Y-62015864D02*
X204222799Y-63072938D01*
X203475336Y-61268401D02*
X204222799Y-62015864D01*
X203473922Y-61268401D02*
X203475336Y-61268401D01*
X203324923Y-61119402D02*
X203473922Y-61268401D01*
X197696000Y-63398768D02*
X199976366Y-61118402D01*
X202301032Y-61119402D02*
X203324923Y-61119402D01*
X197696000Y-70256768D02*
X197696000Y-63398768D01*
X199976366Y-61118402D02*
X202300032Y-61118402D01*
X189161968Y-78790800D02*
X197696000Y-70256768D01*
X175514000Y-78790800D02*
X189161968Y-78790800D01*
X202300032Y-61118402D02*
X202301032Y-61119402D01*
X175661000Y-79502000D02*
X175641000Y-79482000D01*
X198247000Y-63627000D02*
X198247000Y-70485000D01*
X198247000Y-70485000D02*
X189230000Y-79502000D01*
X202071800Y-61669402D02*
X200204598Y-61669402D01*
X189230000Y-79502000D02*
X175661000Y-79502000D01*
X202946799Y-62544401D02*
X202071800Y-61669402D01*
X200204598Y-61669402D02*
X198247000Y-63627000D01*
D47*
X125095000Y-73660000D02*
X123444000Y-72009000D01*
X147320000Y-56896000D02*
X160528000Y-56896000D01*
D48*
X197162000Y-57462000D02*
X192537500Y-57462000D01*
D46*
X118160800Y-74969000D02*
X118325000Y-74969000D01*
D49*
X178308000Y-57785000D02*
X177419000Y-56896000D01*
D50*
X163322000Y-75184000D02*
X163322000Y-75109000D01*
D46*
X118325000Y-74969000D02*
X119253000Y-74041000D01*
D50*
X173315000Y-74982000D02*
X174242800Y-74982000D01*
D47*
X143573500Y-60642500D02*
X147320000Y-56896000D01*
D46*
X118325000Y-79869400D02*
X119176800Y-80721200D01*
D49*
X178308000Y-58674000D02*
X178308000Y-57785000D01*
D50*
X161965000Y-74982000D02*
X161965000Y-75982000D01*
D47*
X160528000Y-56896000D02*
X161481000Y-56896000D01*
D50*
X174242800Y-74982000D02*
X175056800Y-74168000D01*
D47*
X163639000Y-56896000D02*
X177419000Y-56896000D01*
D46*
X158877000Y-70209500D02*
X157752000Y-71334500D01*
D47*
X202856000Y-81063000D02*
X204343000Y-82550000D01*
D46*
X108927000Y-74969000D02*
X118160800Y-74969000D01*
D49*
X132975838Y-94266238D02*
X131589576Y-95652500D01*
D46*
X121316636Y-86995000D02*
X120523000Y-87788636D01*
X132461000Y-93624400D02*
X132461000Y-94509500D01*
D48*
X202071800Y-58919399D02*
X198619399Y-58919399D01*
D46*
X132588000Y-93878400D02*
X132975838Y-94266238D01*
D50*
X175056800Y-73101200D02*
X176932500Y-71225500D01*
D47*
X195589400Y-93513400D02*
X185959400Y-93513400D01*
D48*
X125903500Y-96715000D02*
X124841000Y-95652500D01*
D47*
X124396500Y-65595500D02*
X123444000Y-66548000D01*
D50*
X164390000Y-83907000D02*
X164390000Y-85495200D01*
D47*
X129540000Y-73660000D02*
X132690000Y-73660000D01*
X185959400Y-93513400D02*
X183784400Y-91338400D01*
D49*
X103563000Y-60960000D02*
X104047000Y-60476000D01*
D50*
X161965000Y-74982000D02*
X163195000Y-74982000D01*
D49*
X104047000Y-60476000D02*
X104047000Y-58814679D01*
D50*
X163195000Y-74982000D02*
X163422400Y-74982000D01*
D47*
X201679200Y-91744800D02*
X197358000Y-91744800D01*
D48*
X151039150Y-76566350D02*
X151765000Y-75840500D01*
X150846700Y-76784200D02*
X151765000Y-77702500D01*
D49*
X104047000Y-58814679D02*
X104949679Y-57912000D01*
D48*
X128291500Y-80518000D02*
X128291500Y-82782500D01*
X122682000Y-95652500D02*
X124841000Y-95652500D01*
D50*
X176932500Y-71225500D02*
X176932500Y-71120000D01*
D46*
X157752000Y-74592400D02*
X158648400Y-75488800D01*
D48*
X142428000Y-92559000D02*
X142428000Y-95184000D01*
X128291500Y-74908500D02*
X128291500Y-73681500D01*
D47*
X148259800Y-91719401D02*
X148259801Y-91719401D01*
D50*
X164390000Y-69378000D02*
X163719000Y-68707000D01*
D46*
X132461000Y-94509500D02*
X131318000Y-95652500D01*
D47*
X204343000Y-82550000D02*
X204343000Y-89081000D01*
X148259801Y-91719401D02*
X148259801Y-91719400D01*
D48*
X143891000Y-96647000D02*
X145923000Y-96647000D01*
X128291500Y-73681500D02*
X128270000Y-73660000D01*
X99060000Y-63500000D02*
X99060000Y-60960000D01*
D49*
X99060000Y-60960000D02*
X102743000Y-60960000D01*
D48*
X128291500Y-74908500D02*
X127508000Y-74125000D01*
D47*
X185610500Y-56896000D02*
X189357000Y-60642500D01*
X148259801Y-91719400D02*
X150368000Y-89611201D01*
D46*
X118325000Y-75336400D02*
X118325000Y-79869400D01*
D50*
X163220400Y-86664800D02*
X162509200Y-87376000D01*
X164390000Y-74014400D02*
X164390000Y-72557000D01*
D48*
X128291500Y-82782500D02*
X128270000Y-82804000D01*
X132690000Y-71399000D02*
X132969000Y-71120000D01*
D47*
X146964400Y-93014800D02*
X146964401Y-93014800D01*
D50*
X164390000Y-72557000D02*
X164390000Y-69378000D01*
D49*
X135668238Y-91573838D02*
X133331438Y-93910638D01*
D47*
X126390000Y-73660000D02*
X125095000Y-73660000D01*
D48*
X150520400Y-76758800D02*
X148742400Y-76758800D01*
D47*
X150368000Y-84378800D02*
X150368000Y-81076800D01*
D49*
X102743000Y-60960000D02*
X104531000Y-60960000D01*
D50*
X163322000Y-79756000D02*
X163322000Y-75184000D01*
D47*
X129984500Y-60642500D02*
X139573000Y-60642500D01*
X125031500Y-65595500D02*
X129984500Y-60642500D01*
X127508000Y-73660000D02*
X128270000Y-73660000D01*
D49*
X102743000Y-60960000D02*
X103563000Y-60960000D01*
D47*
X199099000Y-81063000D02*
X201041000Y-81063000D01*
D48*
X97790000Y-72390000D02*
X96647000Y-71247000D01*
D47*
X150368000Y-89611201D02*
X150368000Y-84378800D01*
X194648000Y-81674801D02*
X198487199Y-81674801D01*
D46*
X157752000Y-71334500D02*
X157752000Y-74592400D01*
D48*
X150846700Y-76758800D02*
X150846700Y-76784200D01*
D47*
X146964400Y-76758800D02*
X146964400Y-75946000D01*
D48*
X148742400Y-76758800D02*
X147878800Y-76758800D01*
D49*
X133331438Y-93910638D02*
X132975838Y-94266238D01*
D48*
X192537500Y-57462000D02*
X189357000Y-60642500D01*
X151039150Y-76976650D02*
X151039150Y-76566350D01*
D49*
X136702800Y-90539276D02*
X135668238Y-91573838D01*
D50*
X163422400Y-74982000D02*
X164390000Y-74014400D01*
D46*
X132461000Y-91883500D02*
X132461000Y-93624400D01*
D48*
X130255500Y-96715000D02*
X125903500Y-96715000D01*
X158877000Y-70209500D02*
X161036000Y-70209500D01*
D47*
X145923000Y-96647000D02*
X145923000Y-94056200D01*
D48*
X127508000Y-74125000D02*
X127508000Y-73660000D01*
D46*
X120523000Y-87788636D02*
X120523000Y-89281000D01*
D48*
X202946799Y-58044400D02*
X202071800Y-58919399D01*
D50*
X175056800Y-74168000D02*
X175056800Y-73101200D01*
X163096000Y-79982000D02*
X163322000Y-79756000D01*
D48*
X128291500Y-80518000D02*
X128291500Y-78359000D01*
D50*
X163322000Y-75082400D02*
X163422400Y-74982000D01*
D47*
X162560000Y-60325000D02*
X162560000Y-57975000D01*
X125031500Y-65595500D02*
X124396500Y-65595500D01*
D50*
X170890000Y-83907000D02*
X170890000Y-85952400D01*
X170890000Y-85952400D02*
X171602400Y-86664800D01*
D48*
X148742400Y-76758800D02*
X147777200Y-76758800D01*
D49*
X178308000Y-63881000D02*
X178308000Y-58674000D01*
D47*
X160528000Y-56896000D02*
X163639000Y-56896000D01*
X146964401Y-93014800D02*
X148259800Y-91719401D01*
D48*
X150846700Y-76758800D02*
X151039150Y-76566350D01*
D47*
X128270000Y-73660000D02*
X129540000Y-73660000D01*
D48*
X132690000Y-73660000D02*
X132690000Y-71399000D01*
D47*
X198487199Y-81674801D02*
X199099000Y-81063000D01*
D48*
X162216500Y-70209500D02*
X163719000Y-68707000D01*
X147777200Y-76758800D02*
X146964400Y-75946000D01*
X147878800Y-76758800D02*
X146964400Y-77673200D01*
D46*
X118325000Y-74969000D02*
X118325000Y-75336400D01*
D49*
X104531000Y-60960000D02*
X105547000Y-61976000D01*
D47*
X123444000Y-65595500D02*
X118491000Y-60642500D01*
D49*
X136702800Y-78536800D02*
X136702800Y-90539276D01*
D48*
X198619399Y-58919399D02*
X197162000Y-57462000D01*
D46*
X123063000Y-85979000D02*
X122332636Y-85979000D01*
D47*
X146964400Y-75946000D02*
X146964400Y-69799200D01*
D48*
X128291500Y-74908500D02*
X129540000Y-73660000D01*
D47*
X126390000Y-73660000D02*
X127508000Y-73660000D01*
X123444000Y-72009000D02*
X123444000Y-66548000D01*
X197358000Y-91744800D02*
X195589400Y-93513400D01*
D49*
X115760500Y-57912000D02*
X118491000Y-60642500D01*
D50*
X163322000Y-75109000D02*
X163195000Y-74982000D01*
D48*
X128291500Y-78359000D02*
X128291500Y-74908500D01*
X97790000Y-72390000D02*
X97790000Y-113030000D01*
X132969000Y-71120000D02*
X132969000Y-68728500D01*
D46*
X132402500Y-91825000D02*
X132461000Y-91883500D01*
D50*
X162509200Y-87376000D02*
X162102800Y-87376000D01*
D46*
X118325000Y-75133200D02*
X118160800Y-74969000D01*
D49*
X132690000Y-74524000D02*
X136702800Y-78536800D01*
D46*
X132461000Y-93624400D02*
X132461000Y-93751400D01*
X122332636Y-85979000D02*
X121316636Y-86995000D01*
D48*
X142428000Y-95184000D02*
X143891000Y-96647000D01*
X96647000Y-65913000D02*
X99060000Y-63500000D01*
D50*
X161965000Y-79982000D02*
X163096000Y-79982000D01*
X169390000Y-72557000D02*
X169390000Y-69669600D01*
D48*
X161036000Y-70209500D02*
X162216500Y-70209500D01*
D47*
X139573000Y-60642500D02*
X143573500Y-60642500D01*
D49*
X104531000Y-60960000D02*
X104047000Y-60476000D01*
D50*
X164390000Y-85495200D02*
X163220400Y-86664800D01*
D47*
X201041000Y-81063000D02*
X202856000Y-81063000D01*
X118491000Y-110363000D02*
X139573000Y-110363000D01*
X162560000Y-57975000D02*
X163639000Y-56896000D01*
D50*
X169390000Y-69669600D02*
X169062400Y-69342000D01*
X163322000Y-75184000D02*
X163322000Y-75082400D01*
D48*
X151765000Y-77702500D02*
X151039150Y-76976650D01*
D49*
X104949679Y-57912000D02*
X115760500Y-57912000D01*
D47*
X123444000Y-65595500D02*
X125031500Y-65595500D01*
X150368000Y-81076800D02*
X146964400Y-77673200D01*
X177419000Y-56896000D02*
X179197000Y-56896000D01*
X145923000Y-94056200D02*
X146964400Y-93014800D01*
D48*
X150520400Y-76758800D02*
X150846700Y-76758800D01*
D47*
X179197000Y-56896000D02*
X185610500Y-56896000D01*
D49*
X131589576Y-95652500D02*
X131318000Y-95652500D01*
X178308000Y-57785000D02*
X179197000Y-56896000D01*
D46*
X132620238Y-93910638D02*
X133331438Y-93910638D01*
X108077000Y-75819000D02*
X108927000Y-74969000D01*
D47*
X204343000Y-89081000D02*
X201679200Y-91744800D01*
D48*
X96647000Y-71247000D02*
X96647000Y-65913000D01*
D47*
X146964400Y-77673200D02*
X146964400Y-76758800D01*
D46*
X132461000Y-93751400D02*
X132588000Y-93878400D01*
X132588000Y-93878400D02*
X132620238Y-93910638D01*
D47*
X161481000Y-56896000D02*
X162560000Y-57975000D01*
D48*
X131318000Y-95652500D02*
X130255500Y-96715000D01*
D47*
X123444000Y-66548000D02*
X123444000Y-65595500D01*
D46*
X118325000Y-75336400D02*
X118325000Y-75133200D01*
D48*
X130810000Y-68728500D02*
X132969000Y-68728500D01*
D49*
X132690000Y-73660000D02*
X132690000Y-74524000D01*
D50*
X159191000Y-81534000D02*
X159191000Y-78908600D01*
D48*
X126962500Y-93577500D02*
X127000000Y-93615000D01*
D50*
X159191000Y-78908600D02*
X160617600Y-77482000D01*
D48*
X124841000Y-93577500D02*
X126962500Y-93577500D01*
D50*
X160617600Y-77482000D02*
X161965000Y-77482000D01*
D48*
X174857500Y-67415500D02*
X173990000Y-66548000D01*
D47*
X182880000Y-66548000D02*
X184277000Y-65151000D01*
D50*
X162962500Y-72284500D02*
X161036000Y-72284500D01*
D47*
X165100000Y-65786000D02*
X164338000Y-66548000D01*
D50*
X158877000Y-73279000D02*
X158877000Y-72284500D01*
X171390000Y-83907000D02*
X171390000Y-85284000D01*
D47*
X180594000Y-66548000D02*
X182880000Y-66548000D01*
D49*
X137795000Y-68732400D02*
X137795000Y-67792600D01*
D47*
X126390000Y-71360000D02*
X126390000Y-69545200D01*
D49*
X158267400Y-91795600D02*
X161565500Y-88497500D01*
X137795000Y-69138800D02*
X137795000Y-68732400D01*
X147777200Y-94181899D02*
X150163499Y-91795600D01*
D47*
X137160000Y-66548000D02*
X139039600Y-66548000D01*
D50*
X160080000Y-74482000D02*
X158877000Y-73279000D01*
X163576000Y-88497500D02*
X163576000Y-87680800D01*
D46*
X131318000Y-93577500D02*
X131265000Y-93524500D01*
D50*
X174857500Y-71120000D02*
X174857500Y-72157500D01*
D48*
X174857500Y-68072000D02*
X174857500Y-67458500D01*
D50*
X163489200Y-80482000D02*
X161965000Y-80482000D01*
D47*
X126390000Y-69444000D02*
X128016000Y-67818000D01*
D48*
X127000000Y-95615000D02*
X129159000Y-95615000D01*
D50*
X173355000Y-74442000D02*
X173315000Y-74482000D01*
D47*
X128016000Y-67818000D02*
X129286000Y-66548000D01*
D50*
X164890000Y-83907000D02*
X164890000Y-81882800D01*
D49*
X137795000Y-69138800D02*
X137795000Y-90932000D01*
X137795000Y-67792600D02*
X139039600Y-66548000D01*
X145923000Y-99187000D02*
X147777200Y-97332800D01*
X137795000Y-67183000D02*
X137795000Y-69138800D01*
D50*
X164890000Y-86366800D02*
X164890000Y-83907000D01*
D47*
X139039600Y-66548000D02*
X164338000Y-66548000D01*
X184277000Y-65151000D02*
X188801500Y-65151000D01*
D50*
X171390000Y-85284000D02*
X172720000Y-86614000D01*
D48*
X158877000Y-72284500D02*
X161036000Y-72284500D01*
D47*
X129286000Y-66548000D02*
X136550400Y-66548000D01*
D46*
X105547000Y-59436000D02*
X108087000Y-61976000D01*
X131265000Y-91493000D02*
X131583000Y-91175000D01*
D49*
X137795000Y-90932000D02*
X135636000Y-93091000D01*
D47*
X164338000Y-66548000D02*
X165862000Y-66548000D01*
D48*
X174857500Y-68072000D02*
X174857500Y-67415500D01*
D46*
X131265000Y-93524500D02*
X131265000Y-91493000D01*
D48*
X174857500Y-67458500D02*
X175768000Y-66548000D01*
D47*
X165100000Y-64770000D02*
X165100000Y-65786000D01*
D50*
X163890000Y-72557000D02*
X163235000Y-72557000D01*
X173355000Y-73660000D02*
X173355000Y-74442000D01*
D47*
X175768000Y-66548000D02*
X180594000Y-66548000D01*
X165862000Y-66548000D02*
X173990000Y-66548000D01*
D49*
X147777200Y-97332800D02*
X147777200Y-94181899D01*
D48*
X129280500Y-95615000D02*
X131307250Y-93588250D01*
D47*
X126390000Y-69545200D02*
X126390000Y-69444000D01*
D48*
X129159000Y-95615000D02*
X129280500Y-95615000D01*
D47*
X165100000Y-65786000D02*
X165862000Y-66548000D01*
D50*
X174857500Y-72157500D02*
X173355000Y-73660000D01*
X163576000Y-87680800D02*
X164890000Y-86366800D01*
D49*
X161565500Y-88497500D02*
X163576000Y-88497500D01*
D50*
X172720000Y-86614000D02*
X172720000Y-88497500D01*
X164890000Y-81882800D02*
X163489200Y-80482000D01*
D48*
X174857500Y-71120000D02*
X174857500Y-68072000D01*
D49*
X150163499Y-91795600D02*
X158267400Y-91795600D01*
D47*
X136550400Y-66548000D02*
X137160000Y-66548000D01*
D50*
X163235000Y-72557000D02*
X162962500Y-72284500D01*
D47*
X173990000Y-66548000D02*
X175768000Y-66548000D01*
D48*
X131307250Y-93588250D02*
X131318000Y-93577500D01*
D47*
X165100000Y-60325000D02*
X165100000Y-64770000D01*
D50*
X161965000Y-74482000D02*
X160080000Y-74482000D01*
D46*
X131583000Y-91175000D02*
X132402500Y-91175000D01*
D49*
X137795000Y-67792600D02*
X136550400Y-66548000D01*
D47*
X121285000Y-76708000D02*
X121285000Y-83184999D01*
D48*
X121208800Y-96291400D02*
X121208800Y-95050700D01*
D47*
X120142000Y-66040000D02*
X121285000Y-67183000D01*
X101600000Y-69469000D02*
X104140000Y-72009000D01*
D48*
X122428000Y-97510600D02*
X121208800Y-96291400D01*
D47*
X116840000Y-66040000D02*
X120142000Y-66040000D01*
D46*
X124344000Y-91175000D02*
X126677500Y-91175000D01*
D47*
X188884400Y-91338400D02*
X191984400Y-91338400D01*
X122033000Y-75960000D02*
X121285000Y-76708000D01*
X201032800Y-88674800D02*
X201041000Y-88683000D01*
X100584000Y-66040000D02*
X101600000Y-67056000D01*
X121285000Y-83184999D02*
X116840000Y-87629999D01*
X104140000Y-72009000D02*
X109347000Y-72009000D01*
D48*
X121208800Y-95050700D02*
X122682000Y-93577500D01*
X126216500Y-80518000D02*
X126216500Y-78359000D01*
X137906000Y-95351600D02*
X136706000Y-94151600D01*
D47*
X99060000Y-66040000D02*
X100584000Y-66040000D01*
D46*
X122682000Y-92837000D02*
X124344000Y-91175000D01*
D47*
X191984400Y-91338400D02*
X194648000Y-88674800D01*
D46*
X122682000Y-93577500D02*
X122682000Y-92837000D01*
D47*
X194648000Y-88674800D02*
X201032800Y-88674800D01*
D48*
X126216500Y-76133500D02*
X126390000Y-75960000D01*
D47*
X109347000Y-72009000D02*
X115316000Y-66040000D01*
D48*
X182372000Y-71104000D02*
X184404000Y-71104000D01*
D47*
X121285000Y-67183000D02*
X121285000Y-75184000D01*
D48*
X134956400Y-94151600D02*
X131597400Y-97510600D01*
X131597400Y-97510600D02*
X122428000Y-97510600D01*
D47*
X121285000Y-75184000D02*
X121285000Y-76708000D01*
X122061000Y-75960000D02*
X122033000Y-75960000D01*
X101600000Y-67056000D02*
X105547000Y-67056000D01*
X122061000Y-75960000D02*
X121285000Y-75184000D01*
X126390000Y-75960000D02*
X122061000Y-75960000D01*
X115316000Y-66040000D02*
X116840000Y-66040000D01*
D48*
X126216500Y-78359000D02*
X126216500Y-76133500D01*
X136706000Y-94151600D02*
X134956400Y-94151600D01*
D47*
X101600000Y-67056000D02*
X101600000Y-69469000D01*
D46*
X169291000Y-89678000D02*
X168148000Y-88535000D01*
X150648183Y-93049000D02*
X168444000Y-93049000D01*
X148802000Y-94895182D02*
X149124183Y-94573000D01*
X149124183Y-94573000D02*
X150648183Y-93049000D01*
D50*
X169890000Y-83907000D02*
X169890000Y-86793000D01*
D46*
X169291000Y-92202000D02*
X169291000Y-89678000D01*
X168444000Y-93049000D02*
X169291000Y-92202000D01*
X148802000Y-98848000D02*
X148802000Y-94895182D01*
D50*
X169890000Y-86793000D02*
X168148000Y-88535000D01*
D46*
X145923000Y-101727000D02*
X148802000Y-98848000D01*
X150876000Y-93599000D02*
X169926000Y-93599000D01*
D50*
X170390000Y-88491000D02*
X170434000Y-88535000D01*
D46*
X169926000Y-93599000D02*
X171577000Y-91948000D01*
X171577000Y-89678000D02*
X170434000Y-88535000D01*
D50*
X170390000Y-83907000D02*
X170390000Y-88491000D01*
D46*
X171577000Y-91948000D02*
X171577000Y-89678000D01*
X149352000Y-95123000D02*
X150876000Y-93599000D01*
X149352000Y-100838000D02*
X149352000Y-95123000D01*
X145923000Y-104267000D02*
X149352000Y-100838000D01*
D50*
X159766000Y-86234396D02*
X159766000Y-89027000D01*
D46*
X174548800Y-82600800D02*
X175666400Y-81483200D01*
X172484970Y-82600800D02*
X174548800Y-82600800D01*
X175666400Y-81483200D02*
X175666400Y-80975200D01*
D50*
X163372800Y-81457800D02*
X163372800Y-82092800D01*
X163372800Y-82092800D02*
X163372800Y-82627596D01*
X162897000Y-80982000D02*
X163372800Y-81457800D01*
D46*
X171805600Y-81921430D02*
X172484970Y-82600800D01*
D50*
X163372800Y-82627596D02*
X159766000Y-86234396D01*
D46*
X181340000Y-69104000D02*
X179832000Y-70612000D01*
X171805600Y-79400400D02*
X171805600Y-81921430D01*
D50*
X161965000Y-80982000D02*
X162897000Y-80982000D01*
D46*
X179832000Y-70612000D02*
X177165000Y-73279000D01*
X182372000Y-69104000D02*
X181340000Y-69104000D01*
X101558000Y-73618000D02*
X114341999Y-73618000D01*
X100330000Y-72390000D02*
X101558000Y-73618000D01*
X126677500Y-87275000D02*
X123978000Y-87275000D01*
X123978000Y-87275000D02*
X123634500Y-86931500D01*
X114341999Y-73618000D02*
X116840000Y-71119999D01*
X101092000Y-74168000D02*
X116332000Y-74168000D01*
X116332000Y-74168000D02*
X116840000Y-73660000D01*
X100330000Y-74930000D02*
X101092000Y-74168000D01*
X108585000Y-80010000D02*
X112395000Y-76200000D01*
X112395000Y-76200000D02*
X116840000Y-76200000D01*
X123485000Y-87925000D02*
X122491500Y-86931500D01*
X126677500Y-87925000D02*
X123485000Y-87925000D01*
X100330000Y-80010000D02*
X108585000Y-80010000D01*
X100330000Y-82550000D02*
X104267000Y-82550000D01*
X104267000Y-82550000D02*
X105537000Y-81280000D01*
X100330000Y-85090000D02*
X104267000Y-85090000D01*
X104267000Y-85090000D02*
X105537000Y-83820000D01*
X104267000Y-90170000D02*
X105537000Y-88900000D01*
D50*
X170890000Y-72557000D02*
X170890000Y-73658800D01*
D46*
X106807000Y-87630000D02*
X109220000Y-87630000D01*
X111125000Y-85725000D02*
X111125000Y-82804000D01*
X111125000Y-82804000D02*
X115189000Y-78740000D01*
X115189000Y-78740000D02*
X116840000Y-78740000D01*
X100330000Y-90170000D02*
X104267000Y-90170000D01*
D50*
X170890000Y-73658800D02*
X171196000Y-73964800D01*
X171196000Y-73964800D02*
X171500800Y-73964800D01*
D46*
X109220000Y-87630000D02*
X111125000Y-85725000D01*
X105537000Y-88900000D02*
X106807000Y-87630000D01*
D50*
X163779200Y-80111600D02*
X166116000Y-82448400D01*
D46*
X109093000Y-92710000D02*
X113411000Y-88392000D01*
X113411000Y-88392000D02*
X113411000Y-84709000D01*
D50*
X163779200Y-76911200D02*
X163779200Y-80111600D01*
X166116000Y-82448400D02*
X167944800Y-82448400D01*
X167944800Y-82448400D02*
X168390000Y-82893600D01*
X168390000Y-82893600D02*
X168390000Y-83907000D01*
D46*
X100330000Y-92710000D02*
X109093000Y-92710000D01*
D50*
X164084000Y-76606400D02*
X163779200Y-76911200D01*
D46*
X113411000Y-84709000D02*
X116840000Y-81280000D01*
X116840000Y-97789999D02*
X118872000Y-95757999D01*
X107188000Y-105410000D02*
X114808001Y-97789999D01*
X100330000Y-105410000D02*
X107188000Y-105410000D01*
X118872000Y-95757999D02*
X118872000Y-93995817D01*
X114808001Y-97789999D02*
X116840000Y-97789999D01*
X123642817Y-89225000D02*
X126677500Y-89225000D01*
X118872000Y-93995817D02*
X123642817Y-89225000D01*
X106934000Y-107950000D02*
X114554001Y-100329999D01*
X119422000Y-97747999D02*
X119422000Y-94223635D01*
X123770635Y-89875000D02*
X126677500Y-89875000D01*
X119422000Y-94223635D02*
X123770635Y-89875000D01*
X114554001Y-100329999D02*
X116840000Y-100329999D01*
X116840000Y-100329999D02*
X119422000Y-97747999D01*
X100330000Y-107950000D02*
X106934000Y-107950000D01*
X100330000Y-110490000D02*
X107569000Y-110490000D01*
D50*
X167890000Y-70666800D02*
X168402000Y-70154800D01*
X167890000Y-72557000D02*
X167890000Y-71424800D01*
D46*
X176403000Y-86868000D02*
X176403000Y-89154000D01*
X107569000Y-110490000D02*
X115189001Y-102869999D01*
D50*
X167890000Y-71424800D02*
X167890000Y-71251000D01*
X167890000Y-71424800D02*
X167890000Y-70666800D01*
D46*
X173736000Y-84201000D02*
X176403000Y-86868000D01*
X115189001Y-102869999D02*
X116840000Y-102869999D01*
X119972000Y-102278000D02*
X119972000Y-94451453D01*
X108585000Y-111506000D02*
X114681000Y-105410000D01*
X101854000Y-111506000D02*
X108585000Y-111506000D01*
X119972000Y-94451453D02*
X123898453Y-90525000D01*
X100330000Y-113030000D02*
X101854000Y-111506000D01*
X114681000Y-105410000D02*
X116840000Y-105410000D01*
X123898453Y-90525000D02*
X126677500Y-90525000D01*
X116840000Y-105410000D02*
X119972000Y-102278000D01*
D50*
X173315000Y-76982000D02*
X171851000Y-76982000D01*
X171851000Y-76982000D02*
X171678600Y-76809600D01*
X171678600Y-76809600D02*
X168554400Y-76809600D01*
X166891400Y-77482000D02*
X166878000Y-77495400D01*
X173315000Y-77482000D02*
X166891400Y-77482000D01*
X165890000Y-68878000D02*
X165719000Y-68707000D01*
X165890000Y-72557000D02*
X165890000Y-68878000D01*
X174498000Y-80137000D02*
X175006000Y-80137000D01*
X173315000Y-79982000D02*
X174343000Y-79982000D01*
X174343000Y-79982000D02*
X174498000Y-80137000D01*
X168890000Y-82682400D02*
X168402000Y-82194400D01*
X165658800Y-81127600D02*
X166471600Y-81940400D01*
X168402000Y-82194400D02*
X168148000Y-81940400D01*
X168148000Y-81940400D02*
X166878000Y-81940400D01*
X168890000Y-83907000D02*
X168890000Y-82682400D01*
X166471600Y-81940400D02*
X166878000Y-81940400D01*
D46*
X133906128Y-87925000D02*
X135255000Y-87925000D01*
D50*
X167741600Y-80721200D02*
X168452800Y-80721200D01*
X165390000Y-72557000D02*
X165390000Y-78369600D01*
X165390000Y-78369600D02*
X167741600Y-80721200D01*
D46*
X132402500Y-87925000D02*
X133906128Y-87925000D01*
D50*
X166890000Y-74371200D02*
X166890000Y-72557000D01*
X167742996Y-79449804D02*
X166290000Y-77996808D01*
X166290000Y-77996808D02*
X166290000Y-74971200D01*
X170230800Y-79806800D02*
X169873804Y-79449804D01*
D46*
X134013746Y-88595200D02*
X134747000Y-88595200D01*
D50*
X169873804Y-79449804D02*
X167742996Y-79449804D01*
D46*
X132422700Y-88595200D02*
X134013746Y-88595200D01*
X132402500Y-88575000D02*
X132422700Y-88595200D01*
D50*
X166290000Y-74971200D02*
X166890000Y-74371200D01*
X167390000Y-72557000D02*
X167390000Y-71327200D01*
X167390000Y-71327200D02*
X167284400Y-71221600D01*
X167284400Y-71221600D02*
X167284400Y-70662800D01*
D46*
X134161764Y-89225000D02*
X135255000Y-89225000D01*
X132402500Y-89225000D02*
X134161764Y-89225000D01*
X175564800Y-87884000D02*
X173075600Y-85394800D01*
D50*
X168390000Y-71233600D02*
X168757600Y-70866000D01*
D46*
X132402500Y-90525000D02*
X135255000Y-90525000D01*
D50*
X168390000Y-72557000D02*
X168390000Y-71233600D01*
D46*
X173075600Y-85394800D02*
X173075600Y-85039200D01*
X134289582Y-89875000D02*
X134747000Y-89875000D01*
D50*
X166890000Y-84976400D02*
X165506400Y-86360000D01*
X166890000Y-83907000D02*
X166890000Y-84976400D01*
D46*
X132402500Y-89875000D02*
X134289582Y-89875000D01*
D50*
X169164000Y-80060800D02*
X167717596Y-80060800D01*
X165840000Y-74768800D02*
X166390000Y-74218800D01*
D46*
X133778310Y-87275000D02*
X134747000Y-87275000D01*
D50*
X167717596Y-80060800D02*
X165840000Y-78183204D01*
X165840000Y-78183204D02*
X165840000Y-74768800D01*
D46*
X132402500Y-87275000D02*
X133778310Y-87275000D01*
D50*
X166390000Y-74218800D02*
X166390000Y-72557000D01*
D46*
X175666400Y-82346800D02*
X176479200Y-81534000D01*
X171043600Y-81937248D02*
X172257152Y-83150800D01*
D50*
X163890000Y-82490000D02*
X164236400Y-82143600D01*
D46*
X171043600Y-81026000D02*
X171043600Y-81937248D01*
D50*
X163890000Y-83907000D02*
X163890000Y-82490000D01*
D46*
X174862400Y-83150800D02*
X175666400Y-82346800D01*
X184404000Y-69104000D02*
X183404000Y-70104000D01*
D48*
X108077000Y-81280000D02*
X108077000Y-86360000D01*
D50*
X162280600Y-86766400D02*
X161696400Y-86766400D01*
X163890000Y-83907000D02*
X163890000Y-85157000D01*
D46*
X174447200Y-83150800D02*
X174862400Y-83150800D01*
D50*
X160426400Y-88036400D02*
X160426400Y-88392000D01*
D46*
X183404000Y-70104000D02*
X181610000Y-70104000D01*
X177444400Y-74269600D02*
X177444400Y-74879200D01*
X181610000Y-70104000D02*
X177444400Y-74269600D01*
D50*
X161696400Y-86766400D02*
X160426400Y-88036400D01*
D46*
X172257152Y-83150800D02*
X174447200Y-83150800D01*
D50*
X163890000Y-85157000D02*
X162280600Y-86766400D01*
X170688000Y-68072000D02*
X170561000Y-67945000D01*
X170815000Y-69596000D02*
X171069000Y-69342000D01*
X170561000Y-67945000D02*
X169926000Y-67945000D01*
X171069000Y-68453000D02*
X170688000Y-68072000D01*
X170390000Y-70021000D02*
X170815000Y-69596000D01*
X171069000Y-68580000D02*
X171069000Y-68453000D01*
X171069000Y-69342000D02*
X171069000Y-68580000D01*
X170390000Y-72557000D02*
X170390000Y-70021000D01*
X169890000Y-69124000D02*
X170307000Y-68707000D01*
X169890000Y-72557000D02*
X169890000Y-69124000D01*
D46*
X104267000Y-87630000D02*
X105537000Y-86360000D01*
X100330000Y-87630000D02*
X104267000Y-87630000D01*
D48*
X189087000Y-84201000D02*
X194621799Y-84201000D01*
X194621799Y-84201000D02*
X194648000Y-84174799D01*
X197702000Y-83603000D02*
X201041000Y-83603000D01*
X197130201Y-84174799D02*
X197702000Y-83603000D01*
X194648000Y-84174799D02*
X197130201Y-84174799D01*
X194648000Y-86174800D02*
X201009200Y-86174800D01*
X201009200Y-86174800D02*
X201041000Y-86143000D01*
X189087000Y-86233000D02*
X194589800Y-86233000D01*
D51*
X201001000Y-86183000D02*
X201041000Y-86143000D01*
D48*
X194589800Y-86233000D02*
X194648000Y-86174800D01*
D50*
X161965000Y-76482000D02*
X157101600Y-76482000D01*
D46*
X151765000Y-73765500D02*
X154953101Y-73765500D01*
D50*
X155346400Y-74726800D02*
X155346400Y-74158799D01*
X157101600Y-76482000D02*
X155346400Y-74726800D01*
D46*
X154953101Y-73765500D02*
X155346400Y-74158799D01*
X154927701Y-79777500D02*
X155346400Y-79358801D01*
D50*
X161965000Y-76982000D02*
X157206000Y-76982000D01*
X155346400Y-78841600D02*
X155346400Y-79358801D01*
D46*
X151765000Y-79777500D02*
X154927701Y-79777500D01*
D50*
X157206000Y-76982000D02*
X155346400Y-78841600D01*
D48*
X132695000Y-102996999D02*
X134800499Y-100891499D01*
X134800499Y-100891499D02*
X134879000Y-100970000D01*
X134800499Y-100891499D02*
X135562499Y-100129499D01*
D46*
X139065000Y-91186000D02*
X140692000Y-89559000D01*
X138155999Y-97536000D02*
X139065000Y-96626999D01*
D48*
X135382000Y-100970000D02*
X135382000Y-100711000D01*
X135641000Y-100970000D02*
X135382000Y-100711000D01*
X132695000Y-105410000D02*
X132695000Y-102996999D01*
X135382000Y-100309998D02*
X135562499Y-100129499D01*
X135382000Y-100711000D02*
X135382000Y-100309998D01*
D46*
X139065000Y-96626999D02*
X139065000Y-91186000D01*
D48*
X134879000Y-100970000D02*
X135382000Y-100970000D01*
X136144000Y-100970000D02*
X135641000Y-100970000D01*
D46*
X140692000Y-89559000D02*
X141478000Y-89559000D01*
D48*
X136144000Y-100970000D02*
X138938000Y-100970000D01*
X135382000Y-100970000D02*
X136144000Y-100970000D01*
X135562499Y-100129499D02*
X138155999Y-97536000D01*
X135656001Y-97536000D02*
X132969000Y-97536000D01*
X137282000Y-103510000D02*
X138938000Y-103510000D01*
X127381000Y-107696000D02*
X133096000Y-107696000D01*
X132969000Y-97536000D02*
X125095000Y-105410000D01*
X135656001Y-95601599D02*
X135906000Y-95351600D01*
X125095000Y-105410000D02*
X127381000Y-107696000D01*
X135656001Y-97536000D02*
X135656001Y-95601599D01*
X133096000Y-107696000D02*
X137282000Y-103510000D01*
D46*
X114173000Y-85471000D02*
X115823999Y-83820001D01*
X100330000Y-95250000D02*
X107569000Y-95250000D01*
D50*
X160248600Y-79984600D02*
X159918400Y-79654400D01*
X160248600Y-80797400D02*
X160248600Y-79984600D01*
X160933200Y-81482000D02*
X160324800Y-80873600D01*
D46*
X116840000Y-83820001D02*
X118338599Y-83820001D01*
X107569000Y-95250000D02*
X114173000Y-88646000D01*
X115823999Y-83820001D02*
X116840000Y-83820001D01*
X118338599Y-83820001D02*
X119583200Y-82575400D01*
D50*
X160324800Y-80873600D02*
X160248600Y-80797400D01*
X161965000Y-81482000D02*
X160933200Y-81482000D01*
D46*
X114173000Y-88646000D02*
X114173000Y-85471000D01*
D50*
X167741600Y-81381600D02*
X169062400Y-81381600D01*
X164890000Y-72557000D02*
X164890000Y-78530000D01*
X164890000Y-78530000D02*
X166319200Y-79959200D01*
X169367200Y-81381600D02*
X169849800Y-81864200D01*
D46*
X122570818Y-84963000D02*
X132842000Y-84963000D01*
X105918000Y-100330000D02*
X113538002Y-92709998D01*
X113538002Y-92709998D02*
X116840000Y-92709998D01*
X116840000Y-92709998D02*
X118364000Y-91185998D01*
X100330000Y-100330000D02*
X105918000Y-100330000D01*
D50*
X169062400Y-81381600D02*
X169367200Y-81381600D01*
D46*
X132842000Y-84963000D02*
X134493000Y-86614000D01*
D50*
X166319200Y-79959200D02*
X167741600Y-81381600D01*
D46*
X118364000Y-91185998D02*
X118364000Y-89169818D01*
X134493000Y-86614000D02*
X135255000Y-86614000D01*
X118364000Y-89169818D02*
X122570818Y-84963000D01*
D50*
X173315000Y-77982000D02*
X172333604Y-77982000D01*
D46*
X133323818Y-84413000D02*
X134747000Y-85836182D01*
X134747000Y-85836182D02*
X134747000Y-85852000D01*
D50*
X170950000Y-80052800D02*
X170281600Y-80721200D01*
D46*
X114808001Y-90169999D02*
X116840000Y-90169999D01*
X116840000Y-89916000D02*
X122343000Y-84413000D01*
D50*
X170950000Y-79365604D02*
X170950000Y-80052800D01*
D46*
X122343000Y-84413000D02*
X133323818Y-84413000D01*
D50*
X172333604Y-77982000D02*
X171081002Y-79234602D01*
D46*
X116840000Y-90169999D02*
X116840000Y-89916000D01*
X100330000Y-97790000D02*
X107188000Y-97790000D01*
D50*
X170281600Y-80721200D02*
X169976800Y-80721200D01*
D46*
X107188000Y-97790000D02*
X114808001Y-90169999D01*
D50*
X171081002Y-79234602D02*
X170950000Y-79365604D01*
D46*
X116840000Y-95249999D02*
X123316999Y-88773000D01*
X113538001Y-95249999D02*
X116840000Y-95249999D01*
X105918000Y-102870000D02*
X113538001Y-95249999D01*
X123317000Y-88773000D02*
X123515000Y-88575000D01*
X123515000Y-88575000D02*
X126677500Y-88575000D01*
X123316999Y-88773000D02*
X123317000Y-88773000D01*
X100330000Y-102870000D02*
X105918000Y-102870000D01*
X143764000Y-91186000D02*
X144510000Y-91932000D01*
X141351000Y-91186000D02*
X143764000Y-91186000D01*
X144510000Y-91932000D02*
X144653000Y-91932000D01*
X140528000Y-92559000D02*
X140528000Y-92009000D01*
X140528000Y-92009000D02*
X141351000Y-91186000D01*
D50*
X173315000Y-75982000D02*
X180503000Y-75982000D01*
X180503000Y-75982000D02*
X181483000Y-76962000D01*
X174907000Y-76482000D02*
X179733000Y-76482000D01*
X173315000Y-76482000D02*
X174907000Y-76482000D01*
X179733000Y-76482000D02*
X180848000Y-77597000D01*
D46*
X144669000Y-89932000D02*
X145415000Y-90678000D01*
X145415000Y-90678000D02*
X145554700Y-90817700D01*
D50*
X159004000Y-86360000D02*
X161965000Y-83399000D01*
X161965000Y-83399000D02*
X161965000Y-81982000D01*
D46*
X144653000Y-89932000D02*
X144669000Y-89932000D01*
D50*
X159004000Y-88493600D02*
X159004000Y-86360000D01*
D46*
X160020000Y-91694000D02*
X162204400Y-89509600D01*
D50*
X167275000Y-87122000D02*
X165862000Y-88535000D01*
D46*
X165769800Y-88535000D02*
X165862000Y-88535000D01*
X164795200Y-89509600D02*
X165769800Y-88535000D01*
D50*
X169390000Y-86515000D02*
X168783000Y-87122000D01*
X169390000Y-83907000D02*
X169390000Y-86515000D01*
X168783000Y-87122000D02*
X167275000Y-87122000D01*
D46*
X162204400Y-89509600D02*
X164795200Y-89509600D01*
D50*
X173315000Y-79482000D02*
X175641000Y-79482000D01*
X175260000Y-78790800D02*
X175514000Y-78790800D01*
X175068800Y-78982000D02*
X175158400Y-78892400D01*
D46*
X202946799Y-69554801D02*
X202733998Y-69342000D01*
D50*
X173315000Y-78982000D02*
X175068800Y-78982000D01*
X175158400Y-78892400D02*
X175260000Y-78790800D01*
D46*
X128528000Y-91825000D02*
X129159000Y-92456000D01*
X129159000Y-92456000D02*
X129159000Y-93615000D01*
X126677500Y-91825000D02*
X128528000Y-91825000D01*
M02*
